<?xml version="1.0" standalone="no"?>
<!DOCTYPE svg PUBLIC "-//W3C//DTD SVG 20010904//EN"
 "http://www.w3.org/TR/2001/REC-SVG-20010904/DTD/svg10.dtd">
<svg version="1.0" xmlns="http://www.w3.org/2000/svg"
 width="512.000000pt" height="512.000000pt" viewBox="0 0 512.000000 512.000000"
 preserveAspectRatio="xMidYMid meet">
<metadata>
Created by potrace 1.14, written by Peter Selinger 2001-2017
</metadata>
<g transform="translate(0.000000,512.000000) scale(0.100000,-0.100000)"
fill="#000000" stroke="none">
<path d="M1702 5100 c-174 -46 -326 -162 -444 -340 -101 -153 -298 -577 -393
-845 -25 -71 -51 -145 -58 -164 -10 -27 -20 -37 -46 -44 -107 -27 -184 -137
-175 -247 3 -37 -1 -50 -19 -70 -86 -94 -99 -214 -34 -311 27 -40 91 -85 132
-93 l29 -6 -55 -58 c-98 -101 -134 -170 -142 -267 -16 -187 148 -356 377 -390
59 -8 58 -5 41 -85 -50 -235 -64 -468 -38 -621 21 -119 72 -252 128 -333 39
-55 141 -154 198 -191 31 -21 57 -41 58 -44 0 -3 2 -85 3 -181 4 -190 10 -255
32 -341 54 -214 198 -358 419 -418 115 -32 219 -43 425 -46 251 -4 322 5 430
54 64 29 128 90 163 155 l25 46 18 -27 c60 -93 182 -171 309 -198 119 -24 340
-35 445 -21 211 27 370 132 453 300 43 88 85 245 102 386 3 25 7 56 9 70 8 49
16 116 22 195 3 44 8 100 10 125 3 25 7 209 9 409 l5 364 26 46 c26 47 63 146
71 191 3 14 7 72 9 130 4 116 -14 209 -59 311 -26 59 -90 157 -115 175 -13 9
-5 15 39 29 105 34 197 77 269 126 220 149 297 398 189 611 -52 102 -189 204
-349 260 -65 23 -273 75 -333 83 -23 3 -53 8 -67 10 -63 9 -177 17 -267 17
l-98 1 -74 109 c-63 93 -186 252 -280 362 -35 41 -317 323 -361 361 -250 216
-432 335 -605 393 -124 42 -318 52 -433 22z m-172 -1605 c0 -2 -15 -12 -32
-20 l-33 -16 24 21 c22 19 41 26 41 15z"/>
</g>
</svg>
